<svg width="36" height="36" viewBox="0 0 36 36" fill="none" xmlns="http://www.w3.org/2000/svg">
<g clip-path="url(#clip0_622_1405)">
<g opacity="0.7">
<path fill-rule="evenodd" clip-rule="evenodd" d="M18.0002 8.74C15.4852 8.74 15.1702 8.75 14.1822 8.796C13.1972 8.841 12.5232 8.997 11.9342 9.226C11.3262 9.463 10.8092 9.78 10.2942 10.294C9.78023 10.809 9.46323 11.326 9.22623 11.934C8.99723 12.524 8.84123 13.197 8.79623 14.182C8.75123 15.17 8.74023 15.485 8.74023 18C8.74023 20.515 8.75023 20.83 8.79623 21.818C8.84123 22.804 8.99723 23.477 9.22623 24.066C9.46323 24.675 9.78023 25.191 10.2942 25.706C10.8092 26.221 11.3262 26.537 11.9342 26.774C12.5242 27.003 13.1972 27.159 14.1822 27.204C15.1702 27.249 15.4852 27.26 18.0002 27.26C20.5152 27.26 20.8302 27.25 21.8182 27.204C22.8032 27.159 23.4772 27.003 24.0662 26.774C24.6742 26.537 25.1912 26.221 25.7062 25.706C26.2202 25.191 26.5372 24.675 26.7742 24.066C27.0032 23.476 27.1592 22.804 27.2042 21.818C27.2492 20.83 27.2602 20.515 27.2602 18C27.2602 15.485 27.2502 15.17 27.2042 14.182C27.1592 13.197 27.0032 12.523 26.7742 11.934C26.5372 11.326 26.2202 10.809 25.7062 10.294C25.1912 9.78 24.6742 9.463 24.0662 9.226C23.4762 8.997 22.8032 8.841 21.8182 8.796C20.8302 8.75 20.5152 8.74 18.0002 8.74ZM18.0002 10.409C20.4722 10.409 20.7652 10.419 21.7422 10.463C22.6452 10.503 23.1352 10.655 23.4622 10.781C23.8932 10.949 24.2022 11.15 24.5262 11.474C24.8502 11.798 25.0512 12.107 25.2192 12.539C25.3452 12.865 25.4962 13.355 25.5372 14.259C25.5822 15.235 25.5912 15.528 25.5912 18C25.5912 20.473 25.5822 20.765 25.5372 21.742C25.4972 22.645 25.3452 23.135 25.2192 23.462C25.0512 23.893 24.8492 24.202 24.5262 24.526C24.2022 24.85 23.8932 25.051 23.4612 25.219C23.1352 25.345 22.6452 25.496 21.7412 25.537C20.7662 25.582 20.4732 25.591 18.0002 25.591C15.5272 25.591 15.2342 25.582 14.2582 25.537C13.3552 25.497 12.8652 25.345 12.5382 25.219C12.1072 25.051 11.7982 24.849 11.4742 24.526C11.1502 24.202 10.9492 23.893 10.7812 23.461C10.6552 23.135 10.5042 22.645 10.4632 21.741C10.4182 20.765 10.4092 20.473 10.4092 18C10.4092 15.528 10.4182 15.235 10.4632 14.258C10.5032 13.355 10.6552 12.865 10.7812 12.538C10.9492 12.107 11.1512 11.798 11.4742 11.474C11.7982 11.15 12.1072 10.949 12.5392 10.781C12.8652 10.655 13.3552 10.504 14.2592 10.463C15.2352 10.418 15.5282 10.409 18.0002 10.409Z" fill="#F1F1F2"/>
<path fill-rule="evenodd" clip-rule="evenodd" d="M18.0001 21.087C16.2951 21.087 14.9131 19.705 14.9131 18C14.9131 16.295 16.2951 14.913 18.0001 14.913C19.7051 14.913 21.0871 16.295 21.0871 18C21.0871 19.705 19.7051 21.087 18.0001 21.087ZM18.0001 13.245C15.3741 13.245 13.2451 15.374 13.2451 18C13.2451 20.626 15.3741 22.755 18.0001 22.755C20.6261 22.755 22.7551 20.626 22.7551 18C22.7551 15.374 20.6261 13.245 18.0001 13.245ZM24.0541 13.057C24.0541 13.671 23.5571 14.168 22.9431 14.168C22.3291 14.168 21.8321 13.671 21.8321 13.058C21.8321 12.443 22.3291 11.946 22.9421 11.946C23.5571 11.946 24.0541 12.443 24.0541 13.057Z" fill="#F1F1F2"/>
</g>
</g>
<defs>
<clipPath id="clip0_622_1405">
<rect width="36" height="36" fill="white"/>
</clipPath>
</defs>
</svg>
