<svg width="33" height="34" viewBox="0 0 33 34" fill="none" xmlns="http://www.w3.org/2000/svg">
<path d="M9.41013 8.80942C9.41013 11.1949 9.86584 13.4397 10.7773 15.5438C11.6887 17.648 12.9433 19.5046 14.5411 21.1137C16.1502 22.7115 18.0068 23.9661 20.1109 24.8775C22.2151 25.7889 24.4599 26.2447 26.8454 26.2447C27.6218 26.2447 28.3813 26.1884 29.1239 26.0759C29.8666 25.9634 30.598 25.8002 31.3181 25.5864C31.7457 25.4739 32.0214 25.547 32.1451 25.8058C32.2802 26.0646 32.2239 26.3516 31.9764 26.6666C30.9187 27.9944 29.6809 29.1477 28.2631 30.1267C26.8454 31.1169 25.3038 31.882 23.6385 32.4221C21.9844 32.9735 20.246 33.2491 18.4231 33.2491C16.0377 33.2491 13.7929 32.7934 11.6887 31.882C9.58454 30.9818 7.72793 29.7272 6.11887 28.1181C4.52106 26.5091 3.26645 24.6525 2.35502 22.5483C1.4436 20.4442 0.987882 18.1994 0.987882 15.8139C0.987882 13.6197 1.37608 11.5437 2.15248 9.58582C2.92888 7.62795 3.99784 5.87823 5.35935 4.33669C6.73212 2.78389 8.30742 1.5349 10.0853 0.589714C10.3553 0.432184 10.5916 0.381549 10.7941 0.43781C10.9967 0.494071 11.1373 0.617845 11.2161 0.809132C11.3061 0.989166 11.3005 1.19171 11.1992 1.41675C10.6254 2.4857 10.1809 3.6503 9.86584 4.91055C9.56204 6.15954 9.41013 7.45916 9.41013 8.80942Z" fill="#242D41"/>
</svg>
