<svg width="40" height="40" viewBox="0 0 40 40" fill="none" xmlns="http://www.w3.org/2000/svg">
<path d="M17.766 0.934001C18.0515 0.734974 18.4354 1.00967 18.3332 1.34222C17.1026 5.15742 19.4516 7.40589 21.178 7.76191C21.6869 7.8655 22.295 8.07986 23.5077 7.62892C24.3102 7.33467 24.5551 8.00699 24.0339 8.59913C21.6001 11.3858 17.7319 11.1087 16.0418 8.90575C14.7188 7.18846 13.9777 3.54004 17.7712 0.933101L17.766 0.934001Z" fill="#E1DCDC"/>
<path d="M37.7768 31.389V27.0806C37.7768 25.618 36.5897 24.4309 35.1271 24.4309H4.31627C2.85363 24.4309 1.66656 25.618 1.66656 27.0806V32.698H1.67716V35.6816V38.4055V38.5327C1.67716 39.1792 2.20181 39.7091 2.85363 39.7091H36.6003C37.2468 39.7091 37.7768 39.1845 37.7768 38.5327V38.4903C37.7768 38.4638 37.7874 38.432 37.7874 38.4055V35.6816V31.3943H37.7768V31.389Z" fill="#3596FF"/>
<path d="M11.3118 21.6063C11.3118 21.1611 11.6722 20.7954 12.1227 20.7954H27.1359C27.581 20.7954 27.9467 21.1558 27.9467 21.6063V24.4255H32.4618V19.5554C32.4618 17.8013 31.0363 16.3757 29.2822 16.3757H9.97109C8.21699 16.3757 6.79144 17.8013 6.79144 19.5554V24.4255H11.3118V21.6063Z" fill="#0075FF"/>
<path d="M33.8463 31.948H5.32012C5.14325 31.948 4.99988 32.2155 4.99988 32.5456V34.6838C4.99988 35.0138 5.14325 35.2813 5.32012 35.2813H33.8463C34.0232 35.2813 34.1665 35.0138 34.1665 34.6838V32.5456C34.1665 32.2155 34.0232 31.948 33.8463 31.948Z" fill="white"/>
</svg>
